<?xml version="1.0" standalone="no"?>
<!DOCTYPE svg PUBLIC "-//W3C//DTD SVG 20010904//EN"
 "http://www.w3.org/TR/2001/REC-SVG-20010904/DTD/svg10.dtd">
<svg version="1.0" xmlns="http://www.w3.org/2000/svg"
 width="958.000000pt" height="260.000000pt" viewBox="0 0 958.000000 260.000000"
 preserveAspectRatio="xMidYMid meet">

<g transform="translate(0.000000,260.000000) scale(0.100000,-0.100000)"
fill="#000000" stroke="none">
<path d="M2820 1755 l0 -415 420 0 420 0 0 415 0 415 -420 0 -420 0 0 -415z"/>
<path d="M2093 1727 l-673 -420 0 -414 c0 -349 2 -413 14 -406 7 4 313 195
680 423 l666 415 0 413 c0 226 -3 412 -7 411 -5 0 -311 -190 -680 -422z"/>
<path d="M905 1534 l-309 -194 402 0 402 0 312 195 312 195 -404 -1 -405 -1
-310 -194z"/>
<path d="M540 880 l0 -420 420 0 420 0 0 420 0 420 -420 0 -420 0 0 -420z"/>
<path d="M2492 1102 l-313 -197 397 -3 397 -2 301 186 c166 103 308 193 316
200 12 12 -49 14 -385 13 l-400 -1 -313 -196z"/>
</g>
</svg>
